<svg width="200" height="200" viewBox="0 0 200 200" fill="none" xmlns="http://www.w3.org/2000/svg">
<path d="M120.09 2.01857C113.6 0.694979 106.881 0 100 0C44.7715 0 0 44.7715 0 100C0 155.228 44.7715 200 100 200C155.228 200 200 155.228 200 100C200 77.5214 192.583 56.7751 180.063 40.0746L164.658 51.204C174.916 64.7751 181 81.6771 181 100C181 144.735 144.735 181 100 181C55.2649 181 19 144.735 19 100C19 55.2649 55.2649 19 100 19C105.463 19 110.8 19.5408 115.959 20.5718L120.09 2.01857Z" fill="#579D35"/>
</svg>
