<svg width="619" height="140" viewBox="0 0 619 140" fill="none" xmlns="http://www.w3.org/2000/svg">
<path d="M296.294 103.604V0.259949H319.805V102.622C319.805 110.298 323.282 109.706 338.661 107.241V128.032C318.395 131.88 296.294 135.827 296.294 103.604ZM283.963 24.7292H336.722V44.8498H283.963V24.7292Z" fill="#E6007D"/>
<path d="M56.1588 130.838C82.8125 130.838 104.42 109.275 104.42 82.675C104.42 56.0752 82.8125 34.5119 56.1588 34.5119C29.505 34.5119 7.89792 56.0752 7.89792 82.675C7.89792 109.275 29.505 130.838 56.1588 130.838Z" fill="white"/>
<path fill-rule="evenodd" clip-rule="evenodd" d="M56.1588 42.4099C33.8518 42.4099 15.7959 60.4523 15.7959 82.675C15.7959 104.898 33.8518 122.94 56.1588 122.94C78.4657 122.94 96.5217 104.898 96.5217 82.675C96.5217 60.4523 78.4657 42.4099 56.1588 42.4099ZM0 82.675C0 51.6983 25.1582 26.614 56.1588 26.614C87.1593 26.614 112.318 51.6983 112.318 82.675C112.318 113.652 87.1593 138.736 56.1588 138.736C25.1582 138.736 0 113.652 0 82.675Z" fill="#E6007D"/>
<path d="M56.1585 59.1812C51.9232 59.1934 47.7696 60.3457 44.1356 62.5164C40.5016 64.6872 37.5216 67.7962 35.5099 71.5157H76.8737C74.8566 67.7863 71.8662 64.6708 68.2193 62.4994C64.5725 60.328 60.4051 59.1814 56.1585 59.1812ZM79.675 81.6188V83.0287C79.6844 82.911 79.6928 82.7932 79.7003 82.6754C79.6998 82.3231 79.6914 81.9708 79.675 81.6188ZM35.5099 93.8351C37.5216 97.5546 40.5016 100.664 44.1356 102.834C47.7696 105.005 51.9232 106.157 56.1585 106.17C60.3937 106.157 64.5473 105.005 68.1813 102.834C71.8153 100.664 74.7953 97.5546 76.807 93.8351H35.5099Z" fill="#E6007D"/>
<path d="M105.539 122.028C127.318 122.028 144.972 104.409 144.972 82.675C144.972 60.9411 127.318 43.3223 105.539 43.3223C83.7614 43.3223 66.1068 60.9411 66.1068 82.675C66.1068 104.409 83.7614 122.028 105.539 122.028Z" fill="#7AB927"/>
<path fill-rule="evenodd" clip-rule="evenodd" d="M105.539 46.284C85.3915 46.284 69.0686 62.5825 69.0686 82.675C69.0686 102.768 85.3915 119.066 105.539 119.066C125.687 119.066 142.01 102.768 142.01 82.675C142.01 62.5825 125.687 46.284 105.539 46.284ZM63.1451 82.675C63.1451 59.2997 82.1314 40.3605 105.539 40.3605C128.948 40.3605 147.934 59.2997 147.934 82.675C147.934 106.05 128.948 124.989 105.539 124.989C82.1314 124.989 63.1451 106.05 63.1451 82.675Z" fill="white"/>
<path d="M105.56 61.533C93.858 61.533 84.3719 70.9999 84.3719 82.6778C84.3719 94.3557 93.858 103.823 105.56 103.823C115.022 103.823 124.484 103.823 133.947 103.823V61.533C124.691 61.5114 114.439 61.5604 105.56 61.533Z" fill="white"/>
<path d="M167.873 129.032C193.527 129.032 214.324 108.277 214.324 82.675C214.324 57.0728 193.527 36.3181 167.873 36.3181C142.218 36.3181 121.422 57.0728 121.422 82.675C121.422 108.277 142.218 129.032 167.873 129.032Z" fill="#7AB927"/>
<path fill-rule="evenodd" clip-rule="evenodd" d="M167.873 39.3538C143.889 39.3538 124.457 58.7552 124.457 82.675C124.457 106.595 143.889 125.996 167.873 125.996C191.856 125.996 211.288 106.595 211.288 82.675C211.288 58.7552 191.856 39.3538 167.873 39.3538ZM118.386 82.675C118.386 55.3903 140.548 33.2823 167.873 33.2823C195.198 33.2823 217.359 55.3903 217.359 82.675C217.359 109.96 195.198 132.068 167.873 132.068C140.548 132.068 118.386 109.96 118.386 82.675Z" fill="white"/>
<path d="M167.895 59.1842C154.893 59.1842 144.353 69.7029 144.353 82.6784C144.353 95.6539 154.893 106.173 167.895 106.173C177.999 106.173 188.103 106.173 198.206 106.173V59.1842C188.103 59.1583 177.999 59.2174 167.895 59.1842Z" fill="white"/>
<path d="M234.322 136.614C264.172 136.614 288.371 112.464 288.371 82.675C288.371 52.8854 264.172 28.7363 234.322 28.7363C204.472 28.7363 180.274 52.8854 180.274 82.675C180.274 112.464 204.472 136.614 234.322 136.614Z" fill="#7AB927"/>
<path fill-rule="evenodd" clip-rule="evenodd" d="M234.322 31.8625C206.193 31.8625 183.4 54.618 183.4 82.6749C183.4 110.732 206.193 133.487 234.322 133.487C262.452 133.487 285.244 110.732 285.244 82.6749C285.244 54.618 262.452 31.8625 234.322 31.8625ZM177.148 82.6749C177.148 51.1529 202.752 25.61 234.322 25.61C265.893 25.61 291.497 51.1529 291.497 82.6749C291.497 114.197 265.893 139.74 234.322 139.74C202.752 139.74 177.148 114.197 177.148 82.6749Z" fill="white"/>
<path d="M234.348 55.644C219.396 55.644 207.275 67.7405 207.275 82.6623C207.275 97.5841 219.396 109.681 234.348 109.681C239.377 109.681 242.089 109.706 247.821 109.706C262.773 109.706 274.894 97.6094 274.894 82.6876C274.894 67.7658 262.773 55.6693 247.821 55.6693C242.712 55.6693 239.37 55.644 234.348 55.644Z" fill="white"/>
<path d="M250.176 104.161C261.273 104.161 270.269 94.5414 270.269 82.6749C270.269 70.8084 261.273 61.1888 250.176 61.1888C239.079 61.1888 230.083 70.8084 230.083 82.6749C230.083 94.5414 239.079 104.161 250.176 104.161Z" fill="#3B3B3A"/>
<path fill-rule="evenodd" clip-rule="evenodd" d="M250.176 63.025C240.207 63.025 231.919 71.7047 231.919 82.6749C231.919 93.6452 240.207 102.325 250.176 102.325C260.145 102.325 268.432 93.6452 268.432 82.6749C268.432 71.7047 260.145 63.025 250.176 63.025ZM228.246 82.6749C228.246 69.9122 237.951 59.3525 250.176 59.3525C262.401 59.3525 272.105 69.9122 272.105 82.6749C272.105 95.4377 262.401 105.997 250.176 105.997C237.951 105.997 228.246 95.4377 228.246 82.6749Z" fill="black"/>
<path d="M429.488 35.4369L462.843 82.5721L429.696 129.414H456.644L475.152 100.154L493.661 129.414H520.713L487.461 82.4252L520.713 35.4369H493.661L475.152 64.6968L456.644 35.4369H429.488Z" fill="#E6007D"/>
<path d="M527.775 35.4369L561.13 82.5721L527.984 129.414H554.931L573.439 100.154L591.948 129.414H619L585.748 82.4252L619 35.4369H591.948L573.439 64.6968L554.931 35.4369H527.775Z" fill="#E6007D"/>
<path d="M385.579 35.7306C359.575 35.7306 338.495 56.768 338.495 82.7189C338.495 108.67 359.575 129.707 385.579 129.707C404.756 129.701 422.013 118.089 429.209 100.349H405.935C400.828 106.267 393.405 109.691 385.579 109.737C373.31 109.685 362.61 101.405 359.504 89.5596H404.186H411.656H432.144C432.484 87.295 432.657 85.0087 432.663 82.7189C432.663 56.768 411.583 35.7306 385.579 35.7306ZM385.579 56.8753C395.885 56.8754 404.121 61.5405 408.681 70.7642H362.61C367.149 61.583 375.321 56.9254 385.579 56.8753Z" fill="#E6007D"/>
</svg>
