<svg width="619" height="192" viewBox="0 0 619 192" fill="none" xmlns="http://www.w3.org/2000/svg">
<path d="M318.501 181.246C315.628 181.246 313.107 180.651 310.935 179.46C308.763 178.234 307.065 176.57 305.839 174.469C304.613 172.332 304 169.898 304 167.166C304 164.434 304.578 162.017 305.734 159.916C306.925 157.814 308.536 156.168 310.567 154.977C312.634 153.751 314.945 153.138 317.502 153.138C320.094 153.138 322.388 153.734 324.385 154.924C326.416 156.08 328.01 157.726 329.166 159.863C330.322 161.965 330.9 164.399 330.9 167.166C330.9 167.341 330.882 167.534 330.847 167.744C330.847 167.919 330.847 168.112 330.847 168.322H306.837V165.537H328.851L327.38 166.64C327.38 164.644 326.942 162.875 326.066 161.334C325.225 159.758 324.07 158.532 322.599 157.656C321.128 156.781 319.429 156.343 317.502 156.343C315.611 156.343 313.912 156.781 312.406 157.656C310.9 158.532 309.727 159.758 308.886 161.334C308.045 162.91 307.625 164.714 307.625 166.746V167.323C307.625 169.425 308.08 171.281 308.991 172.893C309.937 174.469 311.233 175.712 312.879 176.623C314.56 177.498 316.469 177.936 318.606 177.936C320.287 177.936 321.846 177.639 323.282 177.043C324.753 176.448 326.014 175.537 327.064 174.311L329.166 176.728C327.94 178.199 326.399 179.32 324.542 180.09C322.721 180.861 320.707 181.246 318.501 181.246Z" fill="white"/>
<path d="M352.573 153.138C354.814 153.138 356.776 153.576 358.457 154.452C360.173 155.292 361.504 156.588 362.45 158.339C363.43 160.091 363.921 162.297 363.921 164.959V180.983H360.191V165.327C360.191 162.42 359.455 160.231 357.984 158.76C356.548 157.254 354.516 156.501 351.89 156.501C349.928 156.501 348.212 156.903 346.741 157.709C345.305 158.48 344.184 159.618 343.378 161.124C342.608 162.595 342.222 164.381 342.222 166.483V180.983H338.492V153.401H342.065V160.966L341.487 159.548C342.363 157.551 343.764 155.993 345.69 154.872C347.616 153.716 349.911 153.138 352.573 153.138Z" fill="white"/>
<path d="M385.765 191.439C383.243 191.439 380.827 191.071 378.515 190.335C376.203 189.6 374.329 188.549 372.893 187.183L374.785 184.346C376.081 185.502 377.674 186.412 379.566 187.078C381.492 187.778 383.524 188.129 385.66 188.129C389.163 188.129 391.737 187.306 393.383 185.659C395.03 184.048 395.853 181.526 395.853 178.094V171.211L396.378 166.483L396.01 161.754V153.401H399.583V177.621C399.583 182.384 398.41 185.87 396.063 188.076C393.751 190.318 390.319 191.439 385.765 191.439ZM385.082 179.933C382.455 179.933 380.091 179.372 377.99 178.251C375.888 177.096 374.224 175.502 372.998 173.47C371.808 171.439 371.212 169.11 371.212 166.483C371.212 163.856 371.808 161.544 372.998 159.548C374.224 157.516 375.888 155.94 377.99 154.819C380.091 153.699 382.455 153.138 385.082 153.138C387.534 153.138 389.741 153.646 391.702 154.662C393.664 155.677 395.222 157.184 396.378 159.18C397.534 161.177 398.112 163.611 398.112 166.483C398.112 169.355 397.534 171.789 396.378 173.786C395.222 175.782 393.664 177.306 391.702 178.357C389.741 179.407 387.534 179.933 385.082 179.933ZM385.45 176.623C387.482 176.623 389.285 176.202 390.861 175.362C392.438 174.486 393.681 173.295 394.592 171.789C395.502 170.248 395.958 168.479 395.958 166.483C395.958 164.486 395.502 162.735 394.592 161.229C393.681 159.723 392.438 158.55 390.861 157.709C389.285 156.833 387.482 156.396 385.45 156.396C383.454 156.396 381.65 156.833 380.039 157.709C378.462 158.55 377.219 159.723 376.308 161.229C375.433 162.735 374.995 164.486 374.995 166.483C374.995 168.479 375.433 170.248 376.308 171.789C377.219 173.295 378.462 174.486 380.039 175.362C381.65 176.202 383.454 176.623 385.45 176.623Z" fill="white"/>
<path d="M409.963 180.983V153.401H413.693V180.983H409.963ZM411.854 147.306C411.084 147.306 410.436 147.044 409.91 146.518C409.385 145.993 409.122 145.362 409.122 144.627C409.122 143.891 409.385 143.278 409.91 142.788C410.436 142.263 411.084 142 411.854 142C412.625 142 413.273 142.245 413.798 142.736C414.324 143.226 414.586 143.839 414.586 144.574C414.586 145.345 414.324 145.993 413.798 146.518C413.308 147.044 412.66 147.306 411.854 147.306Z" fill="white"/>
<path d="M438.153 153.138C440.394 153.138 442.356 153.576 444.037 154.452C445.753 155.292 447.084 156.588 448.03 158.339C449.011 160.091 449.501 162.297 449.501 164.959V180.983H445.771V165.327C445.771 162.42 445.035 160.231 443.564 158.76C442.128 157.254 440.096 156.501 437.47 156.501C435.508 156.501 433.792 156.903 432.321 157.709C430.885 158.48 429.764 159.618 428.958 161.124C428.188 162.595 427.803 164.381 427.803 166.483V180.983H424.072V153.401H427.645V160.966L427.067 159.548C427.943 157.551 429.344 155.993 431.27 154.872C433.196 153.716 435.491 153.138 438.153 153.138Z" fill="white"/>
<path d="M471.293 181.246C468.421 181.246 465.899 180.651 463.727 179.46C461.556 178.234 459.857 176.57 458.631 174.469C457.405 172.332 456.792 169.898 456.792 167.166C456.792 164.434 457.37 162.017 458.526 159.916C459.717 157.814 461.328 156.168 463.359 154.977C465.426 153.751 467.738 153.138 470.295 153.138C472.886 153.138 475.181 153.734 477.177 154.924C479.209 156.08 480.802 157.726 481.958 159.863C483.114 161.965 483.692 164.399 483.692 167.166C483.692 167.341 483.674 167.534 483.639 167.744C483.639 167.919 483.639 168.112 483.639 168.322H459.629V165.537H481.643L480.172 166.64C480.172 164.644 479.734 162.875 478.858 161.334C478.018 159.758 476.862 158.532 475.391 157.656C473.92 156.781 472.221 156.343 470.295 156.343C468.403 156.343 466.704 156.781 465.198 157.656C463.692 158.532 462.519 159.758 461.678 161.334C460.838 162.91 460.417 164.714 460.417 166.746V167.323C460.417 169.425 460.873 171.281 461.783 172.893C462.729 174.469 464.025 175.712 465.671 176.623C467.352 177.498 469.261 177.936 471.398 177.936C473.079 177.936 474.638 177.639 476.074 177.043C477.545 176.448 478.806 175.537 479.857 174.311L481.958 176.728C480.732 178.199 479.191 179.32 477.335 180.09C475.513 180.861 473.499 181.246 471.293 181.246Z" fill="white"/>
<path d="M503 181.246C500.128 181.246 497.607 180.651 495.435 179.46C493.263 178.234 491.565 176.57 490.339 174.469C489.113 172.332 488.5 169.898 488.5 167.166C488.5 164.434 489.078 162.017 490.234 159.916C491.425 157.814 493.036 156.168 495.067 154.977C497.134 153.751 499.445 153.138 502.002 153.138C504.594 153.138 506.888 153.734 508.885 154.924C510.916 156.08 512.51 157.726 513.666 159.863C514.822 161.965 515.4 164.399 515.4 167.166C515.4 167.341 515.382 167.534 515.347 167.744C515.347 167.919 515.347 168.112 515.347 168.322H491.337V165.537H513.351L511.879 166.64C511.879 164.644 511.442 162.875 510.566 161.334C509.725 159.758 508.57 158.532 507.098 157.656C505.627 156.781 503.929 156.343 502.002 156.343C500.111 156.343 498.412 156.781 496.906 157.656C495.4 158.532 494.227 159.758 493.386 161.334C492.545 162.91 492.125 164.714 492.125 166.746V167.323C492.125 169.425 492.58 171.281 493.491 172.893C494.437 174.469 495.733 175.712 497.379 176.623C499.06 177.498 500.969 177.936 503.106 177.936C504.787 177.936 506.345 177.639 507.781 177.043C509.253 176.448 510.513 175.537 511.564 174.311L513.666 176.728C512.44 178.199 510.899 179.32 509.042 180.09C507.221 180.861 505.207 181.246 503 181.246Z" fill="white"/>
<path d="M522.992 180.983V153.401H526.565V160.914L526.197 159.6C526.968 157.499 528.264 155.905 530.085 154.819C531.906 153.699 534.165 153.138 536.862 153.138V156.763C536.722 156.763 536.582 156.763 536.442 156.763C536.302 156.728 536.162 156.711 536.022 156.711C533.115 156.711 530.838 157.604 529.192 159.39C527.545 161.141 526.722 163.646 526.722 166.903V180.983H522.992Z" fill="white"/>
<path d="M543.669 180.983V153.401H547.399V180.983H543.669ZM545.56 147.306C544.79 147.306 544.142 147.044 543.616 146.518C543.091 145.993 542.828 145.362 542.828 144.627C542.828 143.891 543.091 143.278 543.616 142.788C544.142 142.263 544.79 142 545.56 142C546.331 142 546.979 142.245 547.504 142.736C548.03 143.226 548.292 143.839 548.292 144.574C548.292 145.345 548.03 145.993 547.504 146.518C547.014 147.044 546.366 147.306 545.56 147.306Z" fill="white"/>
<path d="M571.859 153.138C574.1 153.138 576.062 153.576 577.743 154.452C579.459 155.292 580.79 156.588 581.736 158.339C582.717 160.091 583.207 162.297 583.207 164.959V180.983H579.477V165.327C579.477 162.42 578.741 160.231 577.27 158.76C575.834 157.254 573.803 156.501 571.176 156.501C569.214 156.501 567.498 156.903 566.027 157.709C564.591 158.48 563.47 159.618 562.664 161.124C561.894 162.595 561.509 164.381 561.509 166.483V180.983H557.778V153.401H561.351V160.966L560.773 159.548C561.649 157.551 563.05 155.993 564.976 154.872C566.902 153.716 569.197 153.138 571.859 153.138Z" fill="white"/>
<path d="M605.051 191.439C602.529 191.439 600.113 191.071 597.801 190.335C595.489 189.6 593.615 188.549 592.179 187.183L594.071 184.346C595.367 185.502 596.96 186.412 598.852 187.078C600.778 187.778 602.81 188.129 604.946 188.129C608.449 188.129 611.023 187.306 612.669 185.659C614.316 184.048 615.139 181.526 615.139 178.094V171.211L615.664 166.483L615.296 161.754V153.401H618.869V177.621C618.869 182.384 617.696 185.87 615.349 188.076C613.037 190.318 609.605 191.439 605.051 191.439ZM604.368 179.933C601.741 179.933 599.377 179.372 597.276 178.251C595.174 177.096 593.51 175.502 592.285 173.47C591.094 171.439 590.498 169.11 590.498 166.483C590.498 163.856 591.094 161.544 592.285 159.548C593.51 157.516 595.174 155.94 597.276 154.819C599.377 153.699 601.741 153.138 604.368 153.138C606.82 153.138 609.027 153.646 610.988 154.662C612.95 155.677 614.508 157.184 615.664 159.18C616.82 161.177 617.398 163.611 617.398 166.483C617.398 169.355 616.82 171.789 615.664 173.786C614.508 175.782 612.95 177.306 610.988 178.357C609.027 179.407 606.82 179.933 604.368 179.933ZM604.736 176.623C606.768 176.623 608.571 176.202 610.148 175.362C611.724 174.486 612.967 173.295 613.878 171.789C614.788 170.248 615.244 168.479 615.244 166.483C615.244 164.486 614.788 162.735 613.878 161.229C612.967 159.723 611.724 158.55 610.148 157.709C608.571 156.833 606.768 156.396 604.736 156.396C602.74 156.396 600.936 156.833 599.325 157.709C597.748 158.55 596.505 159.723 595.594 161.229C594.719 162.735 594.281 164.486 594.281 166.483C594.281 168.479 594.719 170.248 595.594 171.789C596.505 173.295 597.748 174.486 599.325 175.362C600.936 176.202 602.74 176.623 604.736 176.623Z" fill="white"/>
<path d="M296.332 103.344V0H319.842V102.362C319.842 110.038 323.319 109.446 338.698 106.981V127.772C318.432 131.62 296.332 135.567 296.332 103.344ZM284 24.4692H336.759V44.5899H284V24.4692Z" fill="#E6007D"/>
<path d="M56.1588 131.578C82.8125 131.578 104.42 110.015 104.42 83.415C104.42 56.8153 82.8125 35.252 56.1588 35.252C29.5051 35.252 7.89795 56.8153 7.89795 83.415C7.89795 110.015 29.5051 131.578 56.1588 131.578Z" fill="white"/>
<path fill-rule="evenodd" clip-rule="evenodd" d="M56.1588 43.1499C33.8518 43.1499 15.7959 61.1923 15.7959 83.415C15.7959 105.638 33.8518 123.68 56.1588 123.68C78.4657 123.68 96.5217 105.638 96.5217 83.415C96.5217 61.1923 78.4657 43.1499 56.1588 43.1499ZM0 83.415C0 52.4383 25.1582 27.354 56.1588 27.354C87.1593 27.354 112.318 52.4383 112.318 83.415C112.318 114.392 87.1593 139.476 56.1588 139.476C25.1582 139.476 0 114.392 0 83.415Z" fill="#E6007D"/>
<path d="M56.1585 59.9213C51.9232 59.9335 47.7696 61.0857 44.1356 63.2565C40.5016 65.4273 37.5216 68.5362 35.5099 72.2557H76.8737C74.8566 68.5263 71.8662 65.4109 68.2193 63.2395C64.5725 61.068 60.4051 59.9215 56.1585 59.9213ZM79.675 82.3589V83.7688C79.6844 83.6511 79.6928 83.5333 79.7003 83.4154C79.6998 83.0631 79.6914 82.7108 79.675 82.3589ZM35.5099 94.5752C37.5216 98.2946 40.5016 101.404 44.1356 103.574C47.7696 105.745 51.9232 106.897 56.1585 106.91C60.3937 106.897 64.5473 105.745 68.1813 103.574C71.8153 101.404 74.7953 98.2946 76.807 94.5752H35.5099Z" fill="#E6007D"/>
<path d="M105.54 122.768C127.318 122.768 144.972 105.149 144.972 83.415C144.972 61.6811 127.318 44.0623 105.54 44.0623C83.7615 44.0623 66.1069 61.6811 66.1069 83.415C66.1069 105.149 83.7615 122.768 105.54 122.768Z" fill="#7AB927"/>
<path fill-rule="evenodd" clip-rule="evenodd" d="M105.539 47.024C85.3914 47.024 69.0685 63.3225 69.0685 83.4151C69.0685 103.508 85.3914 119.806 105.539 119.806C125.687 119.806 142.01 103.508 142.01 83.4151C142.01 63.3225 125.687 47.024 105.539 47.024ZM63.145 83.4151C63.145 60.0398 82.1313 41.1006 105.539 41.1006C128.947 41.1006 147.934 60.0398 147.934 83.4151C147.934 106.79 128.947 125.73 105.539 125.73C82.1313 125.73 63.145 106.79 63.145 83.4151Z" fill="white"/>
<path d="M105.56 62.273C93.8579 62.273 84.3718 71.7398 84.3718 83.4178C84.3718 95.0957 93.8579 104.563 105.56 104.563C115.022 104.563 124.484 104.563 133.947 104.563V62.273C124.69 62.2514 114.439 62.3004 105.56 62.273Z" fill="white"/>
<path d="M167.873 129.772C193.527 129.772 214.324 109.017 214.324 83.415C214.324 57.8128 193.527 37.0581 167.873 37.0581C142.218 37.0581 121.422 57.8128 121.422 83.415C121.422 109.017 142.218 129.772 167.873 129.772Z" fill="#7AB927"/>
<path fill-rule="evenodd" clip-rule="evenodd" d="M167.873 40.0939C143.889 40.0939 124.457 59.4952 124.457 83.415C124.457 107.335 143.889 126.736 167.873 126.736C191.856 126.736 211.288 107.335 211.288 83.415C211.288 59.4952 191.856 40.0939 167.873 40.0939ZM118.386 83.415C118.386 56.1304 140.548 34.0223 167.873 34.0223C195.198 34.0223 217.359 56.1304 217.359 83.415C217.359 110.7 195.198 132.808 167.873 132.808C140.548 132.808 118.386 110.7 118.386 83.415Z" fill="white"/>
<path d="M167.895 59.9243C154.893 59.9243 144.353 70.443 144.353 83.4184C144.353 96.3939 154.893 106.913 167.895 106.913C177.999 106.913 188.102 106.913 198.206 106.913V59.9243C188.103 59.8984 177.998 59.9574 167.895 59.9243Z" fill="white"/>
<path d="M234.322 137.354C264.172 137.354 288.371 113.205 288.371 83.415C288.371 53.6255 264.172 29.4763 234.322 29.4763C204.472 29.4763 180.274 53.6255 180.274 83.415C180.274 113.205 204.472 137.354 234.322 137.354Z" fill="#7AB927"/>
<path fill-rule="evenodd" clip-rule="evenodd" d="M234.322 32.6026C206.193 32.6026 183.4 55.3581 183.4 83.4151C183.4 111.472 206.193 134.227 234.322 134.227C262.452 134.227 285.244 111.472 285.244 83.4151C285.244 55.3581 262.452 32.6026 234.322 32.6026ZM177.148 83.4151C177.148 51.893 202.752 26.3501 234.322 26.3501C265.893 26.3501 291.497 51.893 291.497 83.4151C291.497 114.937 265.893 140.48 234.322 140.48C202.752 140.48 177.148 114.937 177.148 83.4151Z" fill="white"/>
<path d="M234.348 56.3842C219.396 56.3842 207.275 68.4807 207.275 83.4025C207.275 98.3243 219.396 110.421 234.348 110.421C239.377 110.421 242.089 110.446 247.821 110.446C262.773 110.446 274.894 98.3495 274.894 83.4277C274.894 68.5059 262.773 56.4094 247.821 56.4094C242.712 56.4094 239.37 56.3842 234.348 56.3842Z" fill="white"/>
<path d="M250.176 104.901C261.273 104.901 270.269 95.2815 270.269 83.415C270.269 71.5485 261.273 61.9288 250.176 61.9288C239.079 61.9288 230.083 71.5485 230.083 83.415C230.083 95.2815 239.079 104.901 250.176 104.901Z" fill="#3B3B3A"/>
<path fill-rule="evenodd" clip-rule="evenodd" d="M250.176 63.7651C240.207 63.7651 231.919 72.4448 231.919 83.415C231.919 94.3853 240.207 103.065 250.176 103.065C260.145 103.065 268.433 94.3853 268.433 83.415C268.433 72.4448 260.145 63.7651 250.176 63.7651ZM228.247 83.415C228.247 70.6523 237.951 60.0927 250.176 60.0927C262.401 60.0927 272.105 70.6523 272.105 83.415C272.105 96.1778 262.401 106.737 250.176 106.737C237.951 106.737 228.247 96.1778 228.247 83.415Z" fill="black"/>
<path d="M429.488 36.177L462.843 83.3122L429.696 130.154H456.644L475.152 100.894L493.661 130.154H520.713L487.461 83.1653L520.713 36.177H493.661L475.152 65.4369L456.644 36.177H429.488Z" fill="#E6007D"/>
<path d="M527.775 36.177L561.13 83.3122L527.984 130.154H554.931L573.44 100.894L591.948 130.154H619L585.749 83.1653L619 36.177H591.948L573.44 65.4369L554.931 36.177H527.775Z" fill="#E6007D"/>
<path d="M385.579 36.4707C359.575 36.4707 338.495 57.5081 338.495 83.4591C338.495 109.41 359.575 130.447 385.579 130.447C404.756 130.441 422.013 118.829 429.209 101.089H405.935C400.828 107.007 393.405 110.431 385.579 110.477C373.31 110.425 362.61 102.145 359.504 90.2997H404.186H411.656H432.144C432.484 88.0351 432.657 85.7488 432.663 83.4591C432.663 57.5081 411.583 36.4707 385.579 36.4707ZM385.579 57.6155C395.885 57.6155 404.121 62.2806 408.681 71.5043H362.61C367.149 62.3231 375.321 57.6655 385.579 57.6155Z" fill="#E6007D"/>
</svg>
