<svg width="137" height="149" xmlns="http://www.w3.org/2000/svg" xmlns:xlink="http://www.w3.org/1999/xlink" overflow="hidden"><defs><clipPath id="clip0"><rect x="211" y="814" width="137" height="149"/></clipPath></defs><g clip-path="url(#clip0)" transform="translate(-211 -814)"><path d="M345.593 876.472C345.592 876.441 345.587 876.412 345.583 876.38 345.562 876.09 345.498 875.813 345.385 875.56 345.376 875.539 345.365 875.523 345.355 875.502 345.225 875.233 345.049 874.991 344.833 874.788 344.825 874.78 344.822 874.77 344.814 874.762L323.259 855.049 323.259 835.374C323.259 834.038 322.177 832.957 320.845 832.957L299.078 832.957 280.681 816.133C279.76 815.29 278.349 815.288 277.425 816.133L259.015 832.957 238.589 832.957C237.255 832.957 236.175 834.038 236.175 835.374L236.175 853.832 213.289 874.762C213.281 874.77 213.277 874.78 213.269 874.788 213.054 874.991 212.878 875.233 212.748 875.502 212.738 875.523 212.725 875.541 212.716 875.562 212.603 875.814 212.539 876.09 212.518 876.38 212.516 876.412 212.51 876.443 212.508 876.475 212.508 876.501 212.5 876.523 212.5 876.549L212.5 958.514C212.5 958.779 212.553 959.03 212.632 959.269 212.643 959.301 212.65 959.331 212.661 959.364 212.766 959.641 212.92 959.89 213.112 960.108 213.123 960.121 213.126 960.137 213.137 960.15 213.147 960.161 213.16 960.167 213.171 960.179 213.25 960.261 213.337 960.334 213.427 960.404 213.467 960.435 213.503 960.472 213.545 960.501 213.651 960.575 213.765 960.635 213.883 960.69 213.912 960.702 213.938 960.723 213.966 960.735 214.258 960.859 214.578 960.93 214.915 960.93L343.183 960.93C344.516 960.93 345.598 959.847 345.598 958.513L345.598 876.547C345.601 876.522 345.595 876.498 345.593 876.472ZM217.332 882.257 236.864 900.112C236.889 900.138 236.918 900.162 236.946 900.186L255.87 917.488 217.332 953.001 217.332 882.257ZM259.448 920.76 278.088 937.799C278.55 938.221 279.133 938.432 279.717 938.432 280.3 938.432 280.884 938.221 281.344 937.8L299.924 920.839 337.116 956.095 221.106 956.095 259.448 920.76ZM303.501 917.575 340.772 883.551 340.772 952.905 303.501 917.575ZM340.44 877.31 323.258 892.994 323.258 861.596 340.44 877.31ZM279.051 821.19 291.919 832.957 266.177 832.957 279.051 821.19ZM318.43 837.791 318.43 856.144C318.43 856.182 318.428 856.215 318.43 856.251L318.43 897.403 298.24 915.835C298.226 915.849 298.207 915.854 298.192 915.868 298.186 915.875 298.184 915.884 298.178 915.893L279.719 932.743 241.004 897.352 241.004 837.791 318.43 837.791ZM236.175 892.937 218.372 876.662 236.175 860.38 236.175 892.937Z" stroke="#7AB927" stroke-width="3.40358" stroke-miterlimit="8" fill="#7AB927" fill-rule="evenodd"/><path d="M280.129 906.555C285.695 906.555 291.042 904.854 295.589 901.637 296.679 900.868 296.936 899.363 296.16 898.279 295.387 897.191 293.871 896.938 292.787 897.71 289.061 900.344 284.685 901.737 280.127 901.737 268.115 901.737 258.342 892.001 258.342 880.032 258.342 868.059 268.115 858.318 280.127 858.318 288.926 858.318 296.011 862.688 299.657 870.314L299.657 883.381C299.657 885.547 297.881 887.309 295.7 887.309 293.626 887.309 291.682 885.377 291.516 883.259 291.8 882.229 291.965 881.15 291.965 880.031 291.965 873.285 286.447 867.796 279.666 867.796 272.884 867.796 267.368 873.284 267.368 880.031 267.368 886.778 272.884 892.266 279.666 892.266 283.168 892.266 286.324 890.794 288.566 888.45 290.253 890.65 292.871 892.128 295.698 892.128 300.548 892.128 304.494 888.204 304.494 883.381L304.494 869.752C304.494 869.741 304.49 869.729 304.49 869.718 304.489 869.647 304.476 869.577 304.469 869.506 304.46 869.416 304.455 869.325 304.436 869.238 304.428 869.198 304.41 869.159 304.398 869.121 304.366 869.003 304.332 868.888 304.284 868.779 304.281 868.774 304.281 868.767 304.278 868.761 299.942 859.205 290.915 853.5 280.124 853.5 265.443 853.5 253.5 865.403 253.5 880.032 253.505 894.657 265.448 906.555 280.129 906.555ZM279.669 887.449C275.556 887.449 272.21 884.121 272.21 880.032 272.21 875.943 275.556 872.615 279.669 872.615 283.782 872.615 287.129 875.942 287.129 880.032 287.129 884.123 283.782 887.449 279.669 887.449Z" stroke="#7AB927" stroke-width="3.40358" stroke-miterlimit="8" fill="#7AB927" fill-rule="evenodd" fill-opacity="0.501961"/></g></svg>