<svg width="43" height="42" xmlns="http://www.w3.org/2000/svg" xmlns:xlink="http://www.w3.org/1999/xlink" overflow="hidden"><defs><clipPath id="clip0"><rect x="62" y="394" width="43" height="42"/></clipPath></defs><g clip-path="url(#clip0)" transform="translate(-62 -394)"><path d="M39.893 9.45 38.5 9.45 38.5 7.35 31.5 7.35 31.5 9.45 28.7 9.45 28.7 5.3942C28.7 4.1566 27.6934 3.15 26.4558 3.15L15.5442 3.15C14.3066 3.15 13.3 4.1566 13.3 5.3942L13.3 9.45 10.5 9.45 10.5 7.35 3.5 7.35 3.5 9.45 2.107 9.45C0.9457 9.45 0 10.3957 0 11.557L0 36.743C0 37.9043 0.9457 38.85 2.107 38.85L39.893 38.85C41.0543 38.85 42 37.9043 42 36.743L42 11.557C42 10.3957 41.0543 9.45 39.893 9.45ZM32.9 8.75 37.1 8.75 37.1 9.45 32.9 9.45 32.9 8.75ZM14.7 5.3942C14.7 4.9287 15.0787 4.55 15.5442 4.55L26.4558 4.55C26.9213 4.55 27.3 4.9287 27.3 5.3942L27.3 9.45 14.7 9.45 14.7 5.3942ZM13.3 10.85 28.7 10.85 31.5 10.85 35 10.85 35 37.45 7 37.45 7 10.85 10.5 10.85 13.3 10.85ZM4.9 8.75 9.1 8.75 9.1 9.45 4.9 9.45 4.9 8.75ZM1.4 36.743 1.4 11.557C1.4 11.1671 1.7171 10.85 2.107 10.85L3.5 10.85 5.6 10.85 5.6 37.45 2.107 37.45C1.7171 37.45 1.4 37.1329 1.4 36.743ZM40.6 36.743C40.6 37.1329 40.2829 37.45 39.893 37.45L36.4 37.45 36.4 10.85 38.5 10.85 39.893 10.85C40.2829 10.85 40.6 11.1671 40.6 11.557L40.6 36.743Z" stroke="#7AB927" stroke-width="0.7" fill="#7AB927" transform="matrix(1.02381 0 0 1 62 394)"/></g></svg>