<svg width="138" height="142" xmlns="http://www.w3.org/2000/svg" xmlns:xlink="http://www.w3.org/1999/xlink" overflow="hidden"><defs><clipPath id="clip0"><rect x="212" y="545" width="138" height="142"/></clipPath></defs><g clip-path="url(#clip0)" transform="translate(-212 -545)"><path d="M261.868 679.218C268.842 683.106 275.71 685.059 282.108 685.059 287.465 685.057 292.491 683.688 296.965 680.939L313.454 670.813C314.049 670.448 314.473 669.864 314.635 669.187 314.796 668.511 314.679 667.798 314.312 667.206L300.019 644.146C299.652 643.555 299.064 643.133 298.386 642.972 297.701 642.813 296.989 642.928 296.396 643.293L279.782 653.502C277.228 655.07 273.951 655.571 270.798 654.881 267.645 654.19 264.954 652.37 263.414 649.883L240.833 613.453C237.568 608.186 239.214 601.256 244.501 598.005 244.501 598.005 244.503 598.005 244.503 598.004L261.747 587.406C262.984 586.646 263.366 585.033 262.603 583.802L248.308 560.746C247.545 559.515 245.922 559.129 244.687 559.892L227.458 570.479C208.254 582.279 208.928 613.252 229.1 645.803 238.347 660.728 249.986 672.596 261.868 679.218ZM230.224 574.936 245.214 565.727 256.745 584.324 241.74 593.545C241.736 593.547 241.735 593.549 241.733 593.55 233.982 598.32 231.568 608.479 236.356 616.202L258.936 652.63C261.219 656.317 265.131 659.001 269.668 659.997 274.144 660.973 278.84 660.234 282.547 657.957L296.921 649.125 308.451 667.725 294.2 676.476C283.793 682.869 272.271 679.009 264.44 674.644 253.326 668.448 242.365 657.228 233.579 643.051 215.035 613.127 213.656 585.117 230.224 574.936Z" stroke="#7AB927" stroke-width="3.4375" stroke-miterlimit="8" fill="#7AB927" fill-rule="evenodd"/><path d="M279.009 587.87C287.639 588.385 295.276 592.853 299.966 600.133 304.449 607.07 305.529 615.571 302.924 623.458 302.458 624.867 303.214 626.389 304.611 626.855 304.89 626.95 305.173 626.993 305.454 626.993 306.572 626.993 307.612 626.282 307.984 625.155 311.106 615.706 309.811 605.515 304.437 597.202 298.901 588.605 289.511 583.11 279.324 582.503 277.84 582.44 276.592 583.545 276.505 585.027 276.418 586.511 277.539 587.783 279.009 587.87Z" stroke="#7AB927" stroke-width="3.4375" stroke-miterlimit="8" fill="#7AB927" fill-rule="evenodd" fill-opacity="0.501961"/><path d="M282.863 568.772C296.836 570.364 309.24 577.968 316.893 589.632 324.308 600.939 326.41 614.861 322.657 627.829 322.249 629.234 323.067 630.697 324.482 631.099 324.73 631.17 324.975 631.203 325.22 631.203 326.377 631.203 327.446 630.447 327.78 629.289 331.96 614.847 329.62 599.34 321.362 586.747 312.84 573.758 299.03 565.291 283.471 563.517 282.036 563.35 280.687 564.392 280.518 565.843 280.349 567.294 281.398 568.604 282.863 568.772Z" stroke="#7AB927" stroke-width="3.4375" stroke-miterlimit="8" fill="#7AB927" fill-rule="evenodd"/><path d="M286.788 551.693C305.28 554.218 321.723 564.484 331.901 579.86 341.873 594.906 344.863 613.489 340.108 630.844 339.726 632.236 340.567 633.668 341.984 634.042 342.214 634.103 342.448 634.132 342.677 634.132 343.848 634.132 344.923 633.367 345.24 632.201 350.388 613.416 347.15 593.3 336.356 577.013 325.338 560.37 307.539 549.257 287.523 546.523 286.076 546.334 284.726 547.32 284.526 548.749 284.323 550.176 285.336 551.495 286.788 551.693Z" stroke="#7AB927" stroke-width="3.4375" stroke-miterlimit="8" fill="#7AB927" fill-rule="evenodd" fill-opacity="0.501961"/></g></svg>